<?xml version="1.0" encoding="utf-8"?>
<svg xmlns="http://www.w3.org/2000/svg" version="1.2" baseProfile="tiny" width="256.0" height="256.0" viewBox="0 0 256.0 256.0">
  <rect x="0" y="0" width="256.0" height="256.0" fill="#2b2c2e"/>
  <g transform="translate(0.0,64.79404466501242) scale(0.08109842845326716)">
    <rect fill="#2b2c2e" width="3156.657963446475" height="1558.746736292428"/>
    
			
    <g transform="scale(7.83289817232376) translate(10, 10)">
      
				
      <defs id="SvgjsDefs2810"/>
      <g id="SvgjsG2811" featureKey="rootContainer" transform="matrix(1,0,0,1,0,0)" fill="#ffffff">
            
        <path fill-rule="nonzero" d="             M0,0             H383             V179             H0,0             z             M4,4             v171             h375             v-171             z     "/>
      </g>
      <g id="SvgjsG2812" featureKey="monogramFeature-0" transform="matrix(1.9889979906677098,0,0,1.9889979906677098,122.97122256167013,-28.12697804933611)" fill="#00b6fe">
        <path d="M29.76 54.42 c0.96 4.08 4.5 4.8 5.88 4.8 l0 0.78 l-4.14 0 c-6.96 0 -6.3 -0.06 -9.3 -12 c-1.62 -5.76 -7.08 -5.76 -8.58 -5.76 l-2.52 0 l0 12.06 c0 3.78 1.14 4.92 3.48 4.92 l0 0.78 l-12.3 0 l0 -0.78 c2.4 0 3.42 -1.08 3.42 -5.64 l0 -27.36 c0 -2.82 -0.54 -3.84 -2.16 -4.08 c0.06 0.12 0.06 0.3 0.06 0.48 c0 0.72 -0.54 1.32 -1.32 1.32 c-0.72 0 -1.26 -0.6 -1.26 -1.32 s0.54 -1.32 1.26 -1.32 l10.5 0 c10.98 0 16.98 1.38 16.98 10.5 c0 7.5 -4.26 9.72 -10.26 10.02 c3.78 0.3 7.38 0.48 10.26 12.6 z M11.1 41.519999999999996 l1.68 0 c6.18 0 10.98 0.06 10.98 -9.72 c0 -9.9 -5.1 -9.72 -10.98 -9.72 l-1.68 0 l0 19.44 z M68.46 46.74 l0 0.3 c0 6.3 0.06 9.96 0.24 12.66 l-1.08 0 c-0.12 -1.02 -0.24 -1.68 -0.42 -2.1 c-3.36 2.04 -6.24 2.64 -11.4 2.64 c-11.22 0 -18.78 -7.5 -18.78 -19.56 c0 -12.24 7.56 -19.5 18.78 -19.5 c4.86 0 8.4 0.9 11.52 2.76 c0.18 -0.48 0.12 -1.62 0.3 -2.52 l1.08 0 c-0.18 2.58 -0.24 5.94 -0.24 12.12 l0 0.12 l0 0.18 c-0.06 0.66 -0.6 1.14 -1.26 1.14 c-0.78 0 -1.32 -0.6 -1.32 -1.32 c0 -0.66 0.54 -1.14 1.26 -1.32 c-0.42 -1.86 -0.66 -3.12 -1.08 -4.14 c-2.4 -4.98 -6.78 -6.36 -10.26 -6.36 c-5.64 0 -11.82 2.46 -11.82 18.84 c0 16.62 6.3 18.84 11.82 18.84 c2.58 0 5.88 -0.9 8.34 -3.36 c0.24 -0.24 0.54 -0.54 0.78 -0.96 c1.38 -1.8 1.8 -3.6 2.28 -7.02 c-0.78 0 -1.32 -0.6 -1.32 -1.32 c0 -0.66 0.54 -1.32 1.32 -1.32 s1.2 0.42 1.26 1.2 z"/>
      </g>
      <g id="SvgjsG2813" featureKey="nameFeature-0" transform="matrix(0.748601137783914,0,0,0.748601137783914,14.265658554318883,103.47595721068402)" fill="#ffffff">
        <path d="M18.555 40 l-7.3438 -12.422 l-1.6992 0 l0 12.422 l-5.8594 0 l0 -28.223 l10.234 0 c6.3867 0 9.082 3.7695 9.082 8.4375 c0 3.7891 -2.1484 6.25 -5.9766 7.0703 l8.4961 12.715 l-6.9336 0 z M9.5117 16.641 l0 6.7383 l3.457 0 c3.125 0 4.3945 -1.3281 4.3945 -3.3594 c0 -2.0117 -1.2695 -3.3789 -4.3945 -3.3789 l-3.457 0 z M55.771953124999996 16.934 l-10.469 0 l0 6.4063 l9.2773 0 l0 5.0977 l-9.2773 0 l0 6.3867 l10.469 0 l0 5.1758 l-16.367 0 l0 -28.223 l16.367 0 l0 5.1563 z M90.3124375 40 l-2.0508 -5.8203 l-11.855 0 l-2.0508 5.8203 l-5.9961 0 l10.391 -28.223 l7.168 0 l10.391 28.223 l-5.9961 0 z M78.1254375 29.277 l8.418 0 l-4.1992 -11.973 z M110.165971875 40 l0 -28.223 l10.215 0 c9.0039 0 13.457 5.6641 13.457 14.102 c0 8.457 -4.4531 14.121 -13.457 14.121 l-10.215 0 z M116.025371875 34.8242 l4.0625 0 c5.1953 0 7.5781 -3.2422 7.5781 -8.9453 s-2.3828 -8.9453 -7.5781 -8.9453 l-4.0625 0 l0 17.891 z M170.11696875 11.777000000000001 l-9.2773 14.707 l0 13.516 l-5.8789 0 l0 -13.379 l-9.3359 -14.844 l6.4844 0 l5.7617 9.6094 l5.7813 -9.6094 l6.4648 0 z M216.21059375 40.39063 c-8.3008 0 -14.434 -5.6445 -14.434 -14.512 s6.1328 -14.492 14.434 -14.492 c6.2891 0 11.328 3.2227 13.34 8.5742 l-5.4688 1.9922 c-1.25 -3.2813 -4.2383 -5.1758 -7.8711 -5.1758 c-4.8633 0 -8.5938 3.3984 -8.5938 9.1016 s3.7305 9.1211 8.5938 9.1211 c3.6328 0 6.6211 -1.9141 7.8711 -5.1953 l5.4688 1.9922 c-2.0117 5.3516 -7.0508 8.5938 -13.34 8.5938 z M256.474265625 40.39063 c-8.3008 0 -14.434 -5.6641 -14.434 -14.512 c0 -8.8672 6.1328 -14.492 14.434 -14.492 c8.2813 0 14.414 5.625 14.414 14.492 c0 8.8477 -6.1328 14.512 -14.414 14.512 z M256.474265625 35.0195 c4.8633 0 8.5938 -3.418 8.5938 -9.1406 c0 -5.7031 -3.7305 -9.1016 -8.5938 -9.1016 s-8.5938 3.3984 -8.5938 9.1016 c0 5.7227 3.7305 9.1406 8.5938 9.1406 z M318.24209375 40 l-5.8398 0 l-1.8555 -21.27 l-7.1484 21.27 l-3.7891 0 l-7.1484 -21.27 l-1.875 21.27 l-5.8594 0 l2.3633 -28.223 l8.3594 0 l6.0156 17.715 l6.0938 -17.715 l8.3594 0 z M345.732796875 11.777000000000001 c5.5273 0 8.9648 4.1016 8.9648 9.1211 c0 5.1367 -3.4375 8.9844 -8.9648 8.9844 l-5.8789 0 l0 10.117 l-5.8594 0 l0 -28.223 l11.738 0 z M344.755796875 24.98 c2.9297 0 4.2969 -1.6211 4.2969 -4.1602 c0 -2.4414 -1.3672 -4.1406 -4.2969 -4.1406 l-4.9023 0 l0 8.3008 l4.9023 0 z M388.1249375 40 l-2.0508 -5.8203 l-11.855 0 l-2.0508 5.8203 l-5.9961 0 l10.391 -28.223 l7.168 0 l10.391 28.223 l-5.9961 0 z M375.9379375 29.277 l8.418 0 l-4.1992 -11.973 z M427.256171875 11.777000000000001 l5.8398 0 l0 28.223 l-6.7773 0 l-12.5 -20.176 l0 20.176 l-5.8398 0 l0 -28.223 l6.6992 0 l12.578 20.059 l0 -20.059 z M471.1911875 11.777000000000001 l-9.2773 14.707 l0 13.516 l-5.8789 0 l0 -13.379 l-9.3359 -14.844 l6.4844 0 l5.7617 9.6094 l5.7813 -9.6094 l6.4648 0 z"/>
      </g>
      <g id="SvgjsG2814" featureKey="sloganFeature-0" transform="matrix(0.7899426917427176,0,0,0.7899426917427176,87.55724882329214,149.50265862860635)" fill="#ffffff">
        <path d="M10.01 8.467 l-5.2344 0 l0 3.2031 l4.6387 0 l0 2.5488 l-4.6387 0 l0 3.1934 l5.2344 0 l0 2.5879 l-8.1836 0 l0 -14.111 l8.1836 0 l0 2.5781 z M34.489699218750005 20 l-2.9199 0 l-0.92773 -10.635 l-3.5742 10.635 l-1.8945 0 l-3.5742 -10.635 l-0.9375 10.635 l-2.9297 0 l1.1816 -14.111 l4.1797 0 l3.0078 8.8574 l3.0469 -8.8574 l4.1797 0 z M42.8467078125 20 l0 -14.111 l2.9297 0 l0 14.111 l-2.9297 0 z M74.639140625 20 l-1.0254 -2.9102 l-5.9277 0 l-1.0254 2.9102 l-2.998 0 l5.1953 -14.111 l3.584 0 l5.1953 14.111 l-2.998 0 z M68.544940625 14.6387 l4.209 0 l-2.0996 -5.9863 z M90.91551484375 5.888999999999999 c2.7637 0 4.4824 2.0508 4.4824 4.5605 c0 2.5684 -1.7188 4.4922 -4.4824 4.4922 l-2.9395 0 l0 5.0586 l-2.9297 0 l0 -14.111 l5.8691 0 z M90.42721484375 12.4902 c1.4648 0 2.1484 -0.81055 2.1484 -2.0801 c0 -1.2207 -0.68359 -2.0703 -2.1484 -2.0703 l-2.4512 0 l0 4.1504 l2.4512 0 z M103.1494421875 20 l0 -14.111 l2.9297 0 l0 14.111 l-2.9297 0 z M141.669875 20 l-2.9199 0 l-0.92773 -10.635 l-3.5742 10.635 l-1.8945 0 l-3.5742 -10.635 l-0.9375 10.635 l-2.9297 0 l1.1816 -14.111 l4.1797 0 l3.0078 8.8574 l3.0469 -8.8574 l4.1797 0 z M154.71438359375 20.19531 c-3.0273 0 -5.3906 -1.4551 -5.8203 -4.1016 l3.0273 -0.69336 c0.19531 1.582 1.3574 2.4023 2.9102 2.4023 c1.1914 0 2.1387 -0.52734 2.1289 -1.7188 c-0.0097656 -1.3281 -1.5723 -1.748 -3.291 -2.2754 c-2.0703 -0.64453 -4.2871 -1.4063 -4.2871 -4.0039 c0 -2.627 2.1484 -4.1113 4.9805 -4.1113 c2.4805 0 4.9805 1.0059 5.5469 3.7109 l-2.832 0.70313 c-0.26367 -1.4063 -1.2109 -2.0215 -2.5391 -2.0215 c-1.1816 0 -2.1875 0.48828 -2.1875 1.6504 c0 1.084 1.3867 1.4453 2.9883 1.9238 c2.1289 0.64453 4.6484 1.4648 4.6484 4.2773 c0 2.998 -2.5098 4.2578 -5.2734 4.2578 z M175.5615265625 12.5488 c1.5918 0.43945 2.6563 1.4844 2.6563 3.4961 c0 2.3828 -1.4453 3.9551 -4.4238 3.9551 l-5.8105 0 l0 -14.111 l4.5703 0 c3.0469 0 4.6484 1.4648 4.6484 3.8672 c0 1.2402 -0.53711 2.2559 -1.6406 2.793 z M172.5830265625 8.32 l-1.7773 0 l0 3.3203 l1.9043 0 c1.25 0 1.7969 -0.74219 1.7969 -1.6992 c0 -0.9375 -0.61523 -1.6211 -1.9238 -1.6211 z M173.2470265625 17.4902 c1.582 0 2.1289 -0.84961 2.1289 -1.7676 c0 -0.9375 -0.53711 -1.8262 -2.1875 -1.8262 l-2.3828 0 l0 3.5938 l2.4414 0 z M205.576390625 5.888999999999999 l3.1152 0 l-5.2148 14.111 l-3.2227 0 l-5.1855 -14.111 l3.1055 0 l3.7012 10.693 z M225.54490234375 20 l-1.0254 -2.9102 l-5.9277 0 l-1.0254 2.9102 l-2.998 0 l5.1953 -14.111 l3.584 0 l5.1953 14.111 l-2.998 0 z M219.45070234375 14.6387 l4.209 0 l-2.0996 -5.9863 z M240.6396765625 20.19531 c-3.0273 0 -5.3906 -1.4551 -5.8203 -4.1016 l3.0273 -0.69336 c0.19531 1.582 1.3574 2.4023 2.9102 2.4023 c1.1914 0 2.1387 -0.52734 2.1289 -1.7188 c-0.0097656 -1.3281 -1.5723 -1.748 -3.291 -2.2754 c-2.0703 -0.64453 -4.2871 -1.4063 -4.2871 -4.0039 c0 -2.627 2.1484 -4.1113 4.9805 -4.1113 c2.4805 0 4.9805 1.0059 5.5469 3.7109 l-2.832 0.70313 c-0.26367 -1.4063 -1.2109 -2.0215 -2.5391 -2.0215 c-1.1816 0 -2.1875 0.48828 -2.1875 1.6504 c0 1.084 1.3867 1.4453 2.9883 1.9238 c2.1289 0.64453 4.6484 1.4648 4.6484 4.2773 c0 2.998 -2.5098 4.2578 -5.2734 4.2578 z M259.77781953125 5.888999999999999 c2.7637 0 4.4824 2.0508 4.4824 4.5605 c0 2.5684 -1.7188 4.4922 -4.4824 4.4922 l-2.9395 0 l0 5.0586 l-2.9297 0 l0 -14.111 l5.8691 0 z M259.28951953125 12.4902 c1.4648 0 2.1484 -0.81055 2.1484 -2.0801 c0 -1.2207 -0.68359 -2.0703 -2.1484 -2.0703 l-2.4512 0 l0 4.1504 l2.4512 0 z"/>
      </g>
      
			
    </g>
    
		
  </g>
</svg>
